<svg xmlns="http://www.w3.org/2000/svg" viewBox="-37.9 -814.1 8661.8 904.5" width="840" height="88"><g transform="scale(1,-1)"><path d="M208.0 426.25 421.25 65.0 634.5 426.25 682.5 0.0H805L708.75 735.0L421.25 260.25L133.75 735.0L37.5 0.0H160ZM1305 180H1675L1652.5 279.5H1327.5ZM1488 502 1599.5 242.25 1601.75 213.0 1696.75 0.0H1830.5L1488.0 738.75L1145.5 0.0H1279.25L1376.25 219.25L1378.0 245.25ZM2355.5 333.75 2578 0H2720.5L2483.0 333.75ZM2210.5 700.0V0.0H2329.25V700.0ZM2281.25 597.5H2421.75Q2462.5 597.5 2492.875 583.625Q2523.25 569.75 2540.25 543.625Q2557.25 517.5 2557.25 480.0Q2557.25 442.75 2540.25 416.5Q2523.25 390.25 2492.875 376.375Q2462.5 362.5 2421.75 362.5H2281.25V265.0H2426.75Q2503.5 265.0 2559.75 291.875Q2616.0 318.75 2647.25 368.0Q2678.5 417.25 2678.5 482.5Q2678.5 548.75 2647.25 597.5Q2616.0 646.25 2559.75 673.125Q2503.5 700.0 2426.75 700.0H2281.25ZM3178.75 0.0H3531.75V103.75H3178.75ZM3178.75 596.25H3531.75V700.0H3178.75ZM3178.75 323.75H3511.75V426.25H3178.75ZM3105.5 700.0V0.0H3221.75V700.0ZM4049.75 593.75H4362.75V700.0H4049.75ZM4049.75 316.25H4352.75V418.75H4049.75ZM3976.5 700.0V0.0H4092.75V700.0ZM4883.25 350.0Q4883.25 422.25 4913.875 478.375Q4944.5 534.5 4998.25 566.875Q5052.0 599.25 5121.25 599.25Q5192.0 599.25 5245.25 566.875Q5298.5 534.5 5328.875 478.375Q5359.25 422.25 5359.25 350.0Q5359.25 278.0 5328.625 221.75Q5298.0 165.5 5244.625 133.125Q5191.25 100.75 5121.25 100.75Q5052.0 100.75 4998.25 133.125Q4944.5 165.5 4913.875 221.75Q4883.25 278.0 4883.25 350.0ZM4757.5 350.0Q4757.5 272.0 4784.5 205.125Q4811.5 138.25 4860.5 89.125Q4909.5 40.0 4976.125 12.5Q5042.75 -15.0 5121.25 -15.0Q5200.5 -15.0 5266.75 12.5Q5333 40 5382.0 89.125Q5431.0 138.25 5458.0 205.125Q5485 272 5485 350Q5485.0 428.75 5457.875 494.875Q5430.75 561.0 5381.5 609.625Q5332.25 658.25 5266.125 685.375Q5200.0 712.5 5121.25 712.5Q5043.75 712.5 4977.25 685.375Q4910.75 658.25 4861.5 609.625Q4812.25 561.0 4784.875 494.875Q4757.5 428.75 4757.5 350.0ZM6045.5 333.75 6268 0H6410.5L6173.0 333.75ZM5900.5 700.0V0.0H6019.25V700.0ZM5971.25 597.5H6111.75Q6152.5 597.5 6182.875 583.625Q6213.25 569.75 6230.25 543.625Q6247.25 517.5 6247.25 480.0Q6247.25 442.75 6230.25 416.5Q6213.25 390.25 6182.875 376.375Q6152.5 362.5 6111.75 362.5H5971.25V265.0H6116.75Q6193.5 265.0 6249.75 291.875Q6306.0 318.75 6337.25 368.0Q6368.5 417.25 6368.5 482.5Q6368.5 548.75 6337.25 597.5Q6306.0 646.25 6249.75 673.125Q6193.5 700.0 6116.75 700.0H5971.25ZM6926.0 426.25 7139.25 65.0 7352.5 426.25 7400.5 0.0H7523L7426.75 735.0L7139.25 260.25L6851.75 735.0L6755.5 0.0H6878ZM8023 180H8393L8370.5 279.5H8045.5ZM8206 502 8317.5 242.25 8319.75 213.0 8414.75 0.0H8548.5L8206.0 738.75L7863.5 0.0H7997.25L8094.25 219.25L8096.0 245.25Z" fill="#0e0e0c"/></g></svg>